REM DIRINDEX 1\2\6,1\2\7,1\2\8,1\2\9,1\3\10,1\3\11,1\4\12,1\4\13,1\4\14,1\5\15,1\5\16,1\5\17
REM DIRNAME folder01,folder02,folder03,folder04,folder05,folder06,folder07,folder08,folder09,folder10,folder11,folder12,folder13,folder14,folder15,folder16,folder17
TITLE ""
FILE "1400_3_sec04_0368_0384.mp3" MP3
  TRACK 01 AUDIO
    TITLE "0:"
    INDEX 01 00:00:00
  TRACK 02 AUDIO
    TITLE "17:cjc029_5165"
    INDEX 01 00:00:15
  TRACK 03 AUDIO
    TITLE "0:"
    INDEX 01 00:01:38
  TRACK 04 AUDIO
    TITLE "16:cjc029_5166"
    INDEX 01 00:01:40
  TRACK 05 AUDIO
    TITLE "0:"
    INDEX 01 00:02:49
  TRACK 06 AUDIO
    TITLE "17:cjc029_5167"
    INDEX 01 00:03:31
  TRACK 07 AUDIO
    TITLE "0:"
    INDEX 01 00:04:52
  TRACK 08 AUDIO
    TITLE "16:cjc029_5168"
    INDEX 01 00:04:60
  TRACK 09 AUDIO
    TITLE "0:"
    INDEX 01 00:05:57
  TRACK 10 AUDIO
    TITLE "17:cjc029_5169"
    INDEX 01 00:06:39
  TRACK 11 AUDIO
    TITLE "0:"
    INDEX 01 00:07:41
  TRACK 12 AUDIO
    TITLE "16:cjc029_5170"
    INDEX 01 00:07:49
  TRACK 13 AUDIO
    TITLE "0:"
    INDEX 01 00:08:58
  TRACK 14 AUDIO
    TITLE "17:cjc029_5171"
    INDEX 01 00:09:44
  TRACK 15 AUDIO
    TITLE "0:"
    INDEX 01 00:10:51
  TRACK 16 AUDIO
    TITLE "16:cjc029_5172"
    INDEX 01 00:10:57
  TRACK 17 AUDIO
    TITLE "0:"
    INDEX 01 00:12:01
  TRACK 18 AUDIO
    TITLE "17:cjc029_5173"
    INDEX 01 00:12:63
  TRACK 19 AUDIO
    TITLE "0:"
    INDEX 01 00:13:73
  TRACK 20 AUDIO
    TITLE "16:cjc029_5174"
    INDEX 01 00:14:04
  TRACK 21 AUDIO
    TITLE "0:"
    INDEX 01 00:15:11
  TRACK 22 AUDIO
    TITLE "17:cjc029_5175"
    INDEX 01 00:15:72
  TRACK 23 AUDIO
    TITLE "0:"
    INDEX 01 00:17:16
  TRACK 24 AUDIO
    TITLE "16:cjc029_5176"
    INDEX 01 00:17:23
  TRACK 25 AUDIO
    TITLE "0:"
    INDEX 01 00:18:42
  TRACK 26 AUDIO
    TITLE "17:cjc029_5177"
    INDEX 01 00:19:26
  TRACK 27 AUDIO
    TITLE "0:"
    INDEX 01 00:21:33
  TRACK 28 AUDIO
    TITLE "16:cjc029_5178"
    INDEX 01 00:21:37
  TRACK 29 AUDIO
    TITLE "0:"
    INDEX 01 00:22:40
  TRACK 30 AUDIO
    TITLE "17:cjc029_5179"
    INDEX 01 00:23:26
  TRACK 31 AUDIO
    TITLE "0:"
    INDEX 01 00:25:68
  TRACK 32 AUDIO
    TITLE "16:cjc029_5180"
    INDEX 01 00:25:72
  TRACK 33 AUDIO
    TITLE "0:"
    INDEX 01 00:27:14
  TRACK 34 AUDIO
    TITLE "17:cjc029_5181"
    INDEX 01 00:28:00
  TRACK 35 AUDIO
    TITLE "0:"
    INDEX 01 00:29:19
  TRACK 36 AUDIO
    TITLE "16:cjc029_5182"
    INDEX 01 00:29:25
  TRACK 37 AUDIO
    TITLE "0:"
    INDEX 01 00:30:42
  TRACK 38 AUDIO
    TITLE "17:cjc029_5183"
    INDEX 01 00:31:27
  TRACK 39 AUDIO
    TITLE "0:"
    INDEX 01 00:32:72
  TRACK 40 AUDIO
    TITLE "16:cjc029_5184"
    INDEX 01 00:33:03
  TRACK 41 AUDIO
    TITLE "0:"
    INDEX 01 00:34:34
  TRACK 42 AUDIO
    TITLE "17:cjc029_5185"
    INDEX 01 00:35:19
  TRACK 43 AUDIO
    TITLE "0:"
    INDEX 01 00:38:14
  TRACK 44 AUDIO
    TITLE "16:cjc029_5186"
    INDEX 01 00:38:28
  TRACK 45 AUDIO
    TITLE "0:"
    INDEX 01 00:39:41
  TRACK 46 AUDIO
    TITLE "17:cjc029_5187"
    INDEX 01 00:40:28
  TRACK 47 AUDIO
    TITLE "0:"
    INDEX 01 00:41:53
  TRACK 48 AUDIO
    TITLE "16:cjc029_5188"
    INDEX 01 00:41:59
  TRACK 49 AUDIO
    TITLE "0:"
    INDEX 01 00:43:21
  TRACK 50 AUDIO
    TITLE "17:cjc029_5189"
    INDEX 01 00:44:05
  TRACK 51 AUDIO
    TITLE "0:"
    INDEX 01 00:45:51
  TRACK 52 AUDIO
    TITLE "16:cjc029_5190"
    INDEX 01 00:45:61
  TRACK 53 AUDIO
    TITLE "0:"
    INDEX 01 00:46:70
  TRACK 54 AUDIO
    TITLE "17:cjc029_5191"
    INDEX 01 00:47:56
  TRACK 55 AUDIO
    TITLE "0:"
    INDEX 01 00:50:23
  TRACK 56 AUDIO
    TITLE "16:cjc029_5192"
    INDEX 01 00:50:29
  TRACK 57 AUDIO
    TITLE "0:"
    INDEX 01 00:51:48
  TRACK 58 AUDIO
    TITLE "17:cjc029_5193"
    INDEX 01 00:52:34
  TRACK 59 AUDIO
    TITLE "0:"
    INDEX 01 00:53:62
  TRACK 60 AUDIO
    TITLE "16:cjc029_5194"
    INDEX 01 00:53:68
  TRACK 61 AUDIO
    TITLE "0:"
    INDEX 01 00:55:12
  TRACK 62 AUDIO
    TITLE "17:cjc029_5195"
    INDEX 01 00:55:71
  TRACK 63 AUDIO
    TITLE "0:"
    INDEX 01 00:57:17
  TRACK 64 AUDIO
    TITLE "16:cjc029_5196"
    INDEX 01 00:57:21
  TRACK 65 AUDIO
    TITLE "0:"
    INDEX 01 00:58:34
  TRACK 66 AUDIO
    TITLE "17:cjc029_5197"
    INDEX 01 00:59:20
  TRACK 67 AUDIO
    TITLE "0:"
    INDEX 01 01:00:39
  TRACK 68 AUDIO
    TITLE "16:cjc029_5198"
    INDEX 01 01:00:47
  TRACK 69 AUDIO
    TITLE "0:"
    INDEX 01 01:01:62
